# Blender 4.2.3 LTS
# www.blender.org
mtllib Table.mtl
o table
v -1.806642 -2.310910 2.386104
v -1.800429 -2.212389 2.434703
v -1.802196 -2.160516 2.329919
v -1.808110 -2.259060 2.281313
v -1.770361 -1.467436 0.670481
v -1.773942 -1.517176 0.771915
v -1.792980 -1.515731 0.772441
v -1.789199 -1.466006 0.671002
v -1.786582 -1.417977 0.822558
v -1.785783 -2.260755 2.280696
v -1.785910 -2.312484 2.385531
v -1.699778 -0.439446 1.177733
v -1.782787 -1.367500 0.719594
v -1.704407 -0.491674 1.284397
v 1.190613 -2.486782 2.198400
v 1.203849 -1.743354 0.689671
v -1.783042 -2.335521 2.243999
v -1.783865 -2.387153 2.348764
v 1.182214 -2.560433 2.162145
v -1.769553 -1.592520 0.734727
v 1.200056 -1.818166 0.652665
v -1.768464 -1.542634 0.633452
v 1.201652 -1.768184 0.551330
v 1.203214 -2.388611 2.246777
v 1.217284 -1.648433 0.744480
v 1.183574 -2.612409 2.266985
v -1.779598 -2.214058 2.434306
v 1.208129 -1.693622 0.588128
v -1.766340 -1.368749 0.719140
v -1.679543 -0.440937 1.177085
v 1.298456 -0.666952 1.094700
v 1.216642 -1.595186 0.636707
v 1.191980 -2.538712 2.303374
v 1.199796 -2.440223 2.351973
v 1.283677 -1.513430 2.812509
v -1.690034 -1.287652 2.894596
v -1.718987 -1.232388 2.787874
v -1.717045 -1.285558 2.895253
v 1.374144 -0.511188 3.173381
v 1.392032 -0.397715 3.229459
v 1.383997 -0.450570 3.338011
v 1.288814 -1.460753 2.704844
v 1.388057 0.230245 1.669249
v 1.398701 0.397153 1.617693
v 1.310961 -0.604118 1.258440
v 1.311604 -0.551499 1.151707
v -1.671379 -0.325106 1.234230
v 1.298311 -0.719609 1.201419
v -1.690418 -0.323705 1.234846
v -1.694648 -0.375963 1.341499
v -1.706735 -1.116867 2.844906
v -1.705592 -1.169976 2.952307
v -1.679876 -1.171972 2.951686
v 1.292738 -1.397711 2.869719
v 1.300467 -1.345187 2.761894
v -1.587971 0.623826 1.700318
v -1.609502 0.625372 1.701092
v -1.614539 0.572688 1.808753
v -1.619848 -0.168994 3.312735
v -1.621102 -0.222231 3.420830
v -1.592796 -0.224424 3.420138
v -1.659862 -0.378648 1.340627
v -1.676431 -1.119035 2.843800
v -1.589509 0.455462 1.751357
v -1.601802 -0.285736 3.255398
v -1.669920 -0.494292 1.283444
v -1.685196 -1.234909 2.786850
v -1.767309 -2.163120 2.328866
v -1.753743 -1.423170 0.827121
v 1.252141 -0.535848 3.534953
v -1.577341 -0.321063 3.613144
v -1.636328 -0.305432 3.592175
v -1.683678 -0.271831 3.532683
v -1.687986 -0.217198 3.422769
v -1.685542 -0.164098 3.314506
v -1.668764 0.576760 1.810342
v -1.669307 0.629912 1.702745
v -1.666500 0.685951 1.588688
v 1.396827 0.468818 1.472827
v 1.522917 0.459291 1.469253
v 1.507165 -0.406365 3.226322
v 1.481287 -0.457953 3.335546
v 1.430303 -0.496881 3.423673
v 1.382443 -0.514183 3.467412
v 1.397869 0.536499 1.335503
v -1.626208 2.623374 -2.344216
v -1.539790 2.616815 -2.346604
v 1.561715 2.381471 -2.432268
v 1.434521 2.391036 -2.428798
v -1.626043 2.677048 -2.452999
v -1.540123 2.670526 -2.455373
v -1.626772 2.735659 -2.571398
v -1.538767 2.728889 -2.573874
v -1.594362 2.764225 -2.635157
v -1.534513 2.776987 -2.671875
v 1.259167 2.568991 -2.757326
v 1.365970 2.508347 -2.654055
v 1.433291 2.444816 -2.537542
v 1.372242 2.547484 -2.734265
v 1.480507 2.499876 -2.657445
v 1.541376 2.453298 -2.574113
v 1.242179 0.285986 -3.602981
v 1.241516 0.232350 -3.494185
v -1.720752 0.511081 -3.521014
v -1.727297 0.457892 -3.412055
v -1.519634 2.998050 -2.562819
v 1.284113 2.789291 -2.648549
v -1.574699 2.984925 -2.526234
v -1.609701 2.956557 -2.462403
v -1.612751 2.898323 -2.343856
v -1.614113 2.844740 -2.235040
v -1.651913 0.907083 1.697885
v -1.653948 0.849746 1.814431
v -1.670854 0.057115 3.423522
v -1.671653 0.001675 3.535998
v -1.666108 -0.050971 3.641663
v -1.623442 -0.084173 3.701196
v -1.564855 -0.099818 3.722265
v 1.270110 -0.315019 3.643922
v 1.407089 -0.293905 3.576287
v 1.454053 -0.276491 3.532482
v 1.504796 -0.239625 3.448577
v 1.530416 -0.185981 3.335236
v 1.545579 0.679898 1.578048
v 1.585364 2.601869 -2.323456
v 1.562136 2.673959 -2.465311
v 1.505054 2.720161 -2.548567
v 1.394197 2.768011 -2.625406
v 1.293910 2.694320 -2.457898
v 1.300493 2.623493 -2.315583
v 1.289756 2.736549 -2.542707
v -1.530359 2.950534 -2.464596
v -1.534008 2.892345 -2.346032
v -1.540851 2.839179 -2.237064
v -1.584737 -0.004967 3.533686
v 1.281424 -0.222624 3.454661
v 1.285017 -0.167264 3.341838
v -1.581644 0.050343 3.421056
v -1.588063 -0.056940 3.639596
v 1.276630 -0.263067 3.537475
v 1.299482 0.698667 1.584669
v -1.527419 0.897633 1.694445
v 1.179454 0.244870 -3.505345
v 1.145489 0.253733 -3.517141
v 1.143200 0.228169 -3.529757
v 1.177165 0.219306 -3.517962
v 1.131734 0.269870 -3.547340
v 1.129445 0.244305 -3.559957
v 1.146087 0.283872 -3.578317
v 1.143798 0.258308 -3.590934
v 1.180300 0.287560 -3.591996
v 1.178011 0.261996 -3.604613
v 1.214165 0.278705 -3.580198
v 1.211876 0.253140 -3.592815
v 1.227921 0.262568 -3.549999
v 1.225631 0.237004 -3.562615
v 1.213568 0.248565 -3.519022
v 1.211279 0.223001 -3.531639
v -1.708369 -1.590754 0.725715
v -1.742234 -1.581899 0.713917
v -1.744531 -1.607553 0.701256
v -1.710666 -1.616408 0.713054
v -1.756089 -1.565755 0.683720
v -1.758386 -1.591408 0.671059
v -1.741636 -1.551760 0.652741
v -1.743934 -1.577413 0.640080
v -1.707523 -1.548064 0.639064
v -1.709820 -1.573718 0.626403
v -1.673658 -1.556920 0.650862
v -1.675955 -1.582574 0.638201
v -1.659902 -1.573056 0.681062
v -1.662199 -1.598710 0.668401
v -1.674255 -1.587059 0.712038
v -1.676552 -1.612713 0.699377
v 1.124315 -2.600119 2.259863
v 1.090450 -2.591264 2.248065
v 1.088161 -2.616828 2.235448
v 1.122026 -2.625684 2.247246
v 1.076695 -2.575127 2.217865
v 1.074406 -2.600692 2.205248
v 1.091048 -2.561125 2.186889
v 1.088758 -2.586689 2.174272
v 1.125160 -2.557474 2.173302
v 1.122871 -2.583038 2.160685
v 1.159126 -2.566293 2.185008
v 1.156837 -2.591857 2.172391
v 1.172881 -2.582429 2.215207
v 1.170592 -2.607993 2.202590
v 1.158529 -2.596432 2.246184
v 1.156239 -2.621996 2.233567
v -1.689095 -2.380270 2.324876
v -1.723308 -2.383957 2.338556
v -1.725598 -2.409522 2.325939
v -1.691384 -2.405834 2.312259
v -1.674742 -2.366267 2.293900
v -1.677031 -2.391831 2.281283
v -1.688498 -2.350131 2.263700
v -1.690787 -2.375695 2.251083
v -1.722463 -2.341312 2.251994
v -1.724752 -2.366876 2.239377
v -1.756576 -2.344963 2.265581
v -1.758865 -2.370527 2.252964
v -1.770929 -2.358966 2.296558
v -1.773218 -2.384530 2.283941
v -1.757173 -2.375102 2.326757
v -1.759462 -2.400666 2.314140
v 1.172571 -1.803160 0.633368
v 1.138457 -1.806855 0.647045
v 1.136160 -1.832509 0.634384
v 1.170274 -1.828814 0.620707
v 1.186924 -1.789158 0.602392
v 1.184627 -1.814811 0.589731
v 1.173168 -1.773021 0.572192
v 1.170871 -1.798675 0.559531
v 1.139303 -1.764166 0.560394
v 1.137006 -1.789819 0.547733
v 1.105090 -1.767853 0.574073
v 1.102793 -1.793507 0.561412
v 1.090737 -1.781856 0.605050
v 1.088440 -1.807510 0.592389
v 1.104493 -1.797992 0.635249
v 1.102196 -1.823646 0.622588
v -1.632399 0.462698 -3.436519
v -1.666611 0.459055 -3.422929
v -1.668900 0.433491 -3.435546
v -1.634688 0.437134 -3.449136
v -1.618045 0.476745 -3.467585
v -1.620334 0.451181 -3.480202
v -1.631801 0.492882 -3.497785
v -1.634090 0.467317 -3.510402
v -1.665766 0.501701 -3.509491
v -1.668055 0.476136 -3.522108
v -1.699879 0.498049 -3.495904
v -1.702168 0.472485 -3.508521
v -1.714232 0.484047 -3.464927
v -1.716521 0.458483 -3.477544
v -1.700477 0.467866 -3.434638
v -1.702766 0.442302 -3.447255
v -1.666206 0.451704 -3.478832
v 1.180154 0.237275 -3.560807
v 1.136754 -1.814535 0.591963
v -1.711561 -1.598011 0.670047
v -1.729587 -2.391111 2.283465
v 1.117357 -2.606292 2.202909
vn -0.9984 0.0436 0.0366
vn -0.9976 0.0548 0.0432
vn -0.9977 0.0591 0.0321
vn -0.9985 0.0476 0.0253
vn -0.0800 -0.8939 -0.4412
vn -0.0801 -0.8939 -0.4412
vn -0.9974 0.0712 0.0115
vn -0.9980 0.0621 0.0068
vn -0.0804 -0.8938 -0.4411
vn -0.9964 0.0852 -0.0016
vn -0.9970 0.0768 0.0008
vn -0.9968 0.0795 0.0129
vn -0.0801 -0.8939 -0.4411
vn -0.9996 -0.0247 -0.0163
vn -0.9997 -0.0186 -0.0173
vn -0.9996 -0.0225 -0.0167
vn -0.9995 -0.0287 -0.0157
vn 0.0087 0.4408 -0.8975
vn -0.0089 -0.4430 0.8965
vn -0.9989 -0.0260 -0.0381
vn -0.9981 -0.0333 -0.0512
vn -0.9992 -0.0230 -0.0317
vn -0.9997 -0.0162 -0.0182
vn -0.0801 -0.8935 -0.4419
vn -0.0801 -0.8938 -0.4412
vn 0.9944 -0.1026 -0.0256
vn 0.9947 -0.0934 -0.0440
vn 0.9948 -0.1001 -0.0180
vn 0.9949 -0.0933 -0.0389
vn -0.0799 -0.8938 -0.4412
vn -0.0799 -0.8939 -0.4411
vn -0.0092 -0.4425 0.8967
vn -0.0119 -0.4434 0.8962
vn -0.0143 -0.4432 0.8963
vn -0.0104 -0.4421 0.8969
vn 0.0088 0.4419 -0.8970
vn 0.0063 0.4421 -0.8969
vn 0.0087 0.4419 -0.8970
vn 0.9979 -0.0646 -0.0005
vn 0.9969 -0.0755 -0.0213
vn 0.9964 -0.0822 -0.0189
vn 0.9947 -0.0861 -0.0555
vn 0.9962 -0.0723 -0.0487
vn 0.9948 -0.0853 -0.0556
vn 0.9961 -0.0857 -0.0215
vn -0.0088 -0.4419 0.8970
vn -0.0089 -0.4431 0.8964
vn -0.0089 -0.4432 0.8964
vn -0.0107 -0.4429 0.8965
vn -0.9962 0.0764 0.0423
vn -0.9962 0.0706 0.0512
vn 0.9939 -0.1043 -0.0354
vn 0.9897 -0.1406 -0.0278
vn 0.9930 -0.1172 -0.0134
vn 0.9959 -0.0908 -0.0064
vn 0.9962 -0.0871 0.0044
vn 0.9966 -0.0745 -0.0339
vn 0.9967 -0.0736 -0.0336
vn 0.9956 -0.0858 -0.0369
vn 0.9957 -0.0849 -0.0360
vn 0.9970 -0.0671 -0.0396
vn 0.0042 0.4423 -0.8968
vn -0.0126 -0.4428 0.8965
vn 0.0067 0.4412 -0.8974
vn 0.0086 0.4411 -0.8974
vn 0.9960 -0.0810 -0.0375
vn 0.9958 -0.0831 -0.0382
vn 0.0049 0.4413 -0.8973
vn -0.9969 0.0777 0.0139
vn -0.9965 0.0835 0.0005
vn -0.9962 0.0768 0.0408
vn -0.9963 0.0724 0.0456
vn -0.0107 -0.4421 0.8969
vn -0.0135 -0.4418 0.8970
vn -0.0089 -0.4426 0.8967
vn 0.9951 -0.0989 0.0002
vn 0.9948 -0.1009 0.0164
vn 0.0086 0.4402 -0.8978
vn 0.0032 0.4406 -0.8977
vn -0.0019 0.4411 -0.8975
vn -0.9963 0.0862 -0.0043
vn -0.9968 0.0793 0.0124
vn -0.9967 0.0752 0.0303
vn -0.9968 0.0761 0.0259
vn -0.0112 -0.4423 0.8968
vn -0.0103 -0.4424 0.8968
vn -0.0089 -0.4425 0.8967
vn 0.0800 0.8939 0.4412
vn -0.0086 -0.4411 0.8974
vn -0.0086 -0.4412 0.8974
vn 0.9970 -0.0730 -0.0259
vn 0.9968 -0.0750 -0.0288
vn 0.9969 -0.0741 -0.0274
vn 0.9971 -0.0720 -0.0245
vn 0.0088 0.4421 -0.8969
vn 0.0088 0.4422 -0.8969
vn 0.0089 0.4419 -0.8970
vn 0.0089 0.4418 -0.8971
vn -0.0798 -0.8938 -0.4412
vn -0.0798 -0.8938 -0.4413
vn -0.0799 -0.8939 -0.4412
vn 0.0088 0.4420 -0.8970
vn 0.0088 0.4418 -0.8971
vn 0.9967 -0.0756 -0.0279
vn 0.9968 -0.0750 -0.0268
vn 0.9968 -0.0753 -0.0274
vn 0.9967 -0.0760 -0.0284
vn -0.0085 -0.4407 0.8976
vn -0.0086 -0.4403 0.8978
vn -0.0086 -0.4404 0.8978
vn -0.0085 -0.4408 0.8976
vn -0.9977 0.0674 -0.0044
vn -0.0800 -0.8941 -0.4407
vn -0.0800 -0.8939 -0.4411
vn -0.0797 -0.8940 -0.4409
vn -0.0798 -0.8939 -0.4410
vn -0.0805 -0.8938 -0.4411
vn -0.0801 -0.8790 -0.4700
vn -0.0797 -0.8939 -0.4412
vn -0.0795 -0.8939 -0.4411
vn -0.0795 -0.8940 -0.4410
vn -0.0795 -0.8941 -0.4408
vn -0.0799 -0.8940 -0.4408
vn -0.0798 -0.8939 -0.4412
vn -0.0802 -0.8938 -0.4413
vn -0.0805 -0.8937 -0.4413
vn -0.0801 -0.8938 -0.4413
vn -0.0800 -0.8938 -0.4413
vn -0.0800 -0.8938 -0.4414
vn -0.0799 -0.8938 -0.4413
vn -0.0794 -0.8938 -0.4413
vn -0.0799 -0.8938 -0.4414
vn -0.0797 -0.8938 -0.4413
vn 0.9968 -0.0735 -0.0316
vn 0.9968 -0.0665 -0.0441
vn 0.9968 -0.0667 -0.0437
vn 0.9968 -0.0739 -0.0310
vn -0.9972 0.0667 0.0340
vn -0.9972 0.0659 0.0356
vn -0.9956 0.0926 -0.0126
vn -0.9955 0.0935 -0.0142
vn -0.0801 -0.8936 -0.4416
vn -0.0801 -0.8936 -0.4418
vn -0.2970 0.4428 -0.8460
vn 0.1367 0.4261 -0.8943
vn 0.1311 0.4279 -0.8943
vn -0.2753 0.4402 -0.8547
vn -0.7534 0.3398 -0.5630
vn -0.7560 0.3393 -0.5599
vn -0.9736 0.1599 -0.1626
vn -0.9694 0.1605 -0.1856
vn -0.9983 0.0540 0.0240
vn -0.9985 0.0537 0.0089
vn -0.9987 0.0484 0.0164
vn -0.9987 0.0486 0.0126
vn -0.9981 0.0596 0.0122
vn -0.9981 0.0598 0.0148
vn -0.9981 0.0583 0.0199
vn -0.9981 0.0585 0.0169
vn -0.9983 0.0539 0.0212
vn -0.9981 0.0599 0.0131
vn -0.9980 0.0599 0.0185
vn -0.9979 0.0528 0.0366
vn -0.9975 0.0525 0.0470
vn -0.9457 -0.0822 0.3143
vn -0.9508 -0.0794 0.2995
vn -0.6331 -0.3064 0.7108
vn -0.6552 -0.3033 0.6919
vn -0.2043 -0.4233 0.8826
vn -0.2132 -0.4225 0.8810
vn 0.2400 -0.4452 0.8627
vn 0.2307 -0.4495 0.8630
vn 0.5848 -0.4072 0.7015
vn 0.5849 -0.4100 0.6998
vn 0.7965 -0.3355 0.5029
vn 0.7959 -0.3375 0.5027
vn 0.9343 -0.2357 0.2675
vn 0.9322 -0.2388 0.2721
vn 0.9895 -0.1335 0.0549
vn 0.9901 -0.1303 0.0526
vn 0.9957 -0.0861 -0.0331
vn 0.9957 -0.0860 -0.0331
vn 0.9937 -0.0595 -0.0951
vn 0.9937 -0.0538 -0.0988
vn 0.9349 0.0788 -0.3460
vn 0.9365 0.0754 -0.3424
vn 0.7471 0.2300 -0.6237
vn 0.7531 0.2242 -0.6185
vn 0.4536 0.3558 -0.8171
vn 0.4545 0.3565 -0.8163
vn 0.0800 0.8939 0.4411
vn 0.0797 0.8937 0.4415
vn 0.0799 0.8937 0.4416
vn 0.0796 0.8939 0.4412
vn -0.0086 -0.4419 0.8970
vn -0.3895 -0.3793 0.8393
vn -0.0089 -0.4419 0.8970
vn -0.9242 -0.0992 0.3688
vn -0.9242 -0.0992 0.3687
vn -0.9175 0.2390 -0.3179
vn -0.6988 0.3659 -0.6147
vn -0.6987 0.3660 -0.6148
vn -0.9175 0.2390 -0.3178
vn -0.3733 0.4372 -0.8182
vn 0.3895 0.3793 -0.8393
vn 0.7111 0.2589 -0.6537
vn 0.7110 0.2590 -0.6537
vn 0.9968 -0.0757 -0.0275
vn 0.9968 -0.0757 -0.0276
vn 0.9176 -0.2390 0.3177
vn 0.9175 -0.2390 0.3179
vn 0.3734 -0.4372 0.8182
vn 0.3733 -0.4372 0.8182
vn -0.9968 0.0757 0.0275
vn -0.9968 0.0757 0.0276
vn -0.3734 0.4372 -0.8182
vn 0.9242 0.0992 -0.3688
vn 0.6987 -0.3660 0.6148
vn -0.0087 -0.4419 0.8970
vn -0.9242 -0.0993 0.3688
vn 0.0086 0.4419 -0.8970
vn 0.7106 0.2592 -0.6541
vn 0.7110 0.2590 -0.6538
vn 0.3732 -0.4372 0.8182
vn 0.9175 -0.2391 0.3179
vn 0.7109 0.2590 -0.6539
vn -0.3735 0.4372 -0.8181
vn 0.9242 0.0993 -0.3688
vn -0.3732 0.4373 -0.8182
vn -0.3732 0.4372 -0.8182
vn -0.9176 0.2390 -0.3177
vn -0.7110 -0.2590 0.6537
vn 0.9968 -0.0756 -0.0277
vn 0.9175 -0.2390 0.3178
vn 0.9243 0.0992 -0.3686
vn 0.3896 0.3793 -0.8393
vn -0.6986 0.3660 -0.6148
vn -0.9968 0.0756 0.0276
vn -0.9968 0.0757 0.0274
vn -0.7111 -0.2589 0.6536
vn -0.1179 -0.9061 -0.4063
vn -0.1305 -0.8887 -0.4395
vn -0.0770 -0.8948 -0.4397
vn -0.1156 -0.8741 -0.4718
vn -0.0800 -0.8697 -0.4870
vn -0.0418 -0.8783 -0.4762
vn -0.0234 -0.8966 -0.4423
vn -0.0403 -0.9133 -0.4053
vn -0.0810 -0.9169 -0.3908
vn -0.0396 -0.9135 -0.4048
vn -0.0810 -0.9170 -0.3906
vn -0.0765 -0.8952 -0.4391
vn -0.1181 -0.9061 -0.4063
vn -0.1306 -0.8887 -0.4395
vn -0.1149 -0.8745 -0.4713
vn -0.0800 -0.8699 -0.4866
vn -0.0419 -0.8783 -0.4764
vn -0.0233 -0.8965 -0.4424
vn -0.0405 -0.9129 -0.4062
vn -0.0805 -0.9174 -0.3898
vn -0.0795 -0.8952 -0.4386
vn -0.1193 -0.9066 -0.4048
vn -0.1330 -0.8884 -0.4395
vn -0.1159 -0.8737 -0.4725
vn -0.0795 -0.8700 -0.4866
vn -0.0432 -0.8790 -0.4748
vn -0.0261 -0.8964 -0.4424
vn -0.0802 -0.9171 -0.3906
vn -0.1198 -0.9069 -0.4039
vn -0.0814 -0.8946 -0.4393
vn -0.1347 -0.8882 -0.4393
vn -0.1170 -0.8729 -0.4736
vn -0.0793 -0.8697 -0.4872
vn -0.0431 -0.8792 -0.4744
vn -0.0278 -0.8965 -0.4423
vn -0.0420 -0.9122 -0.4076
vn -0.0429 -0.9115 -0.4091
vn -0.0795 -0.9173 -0.3902
vn -0.0854 -0.8946 -0.4387
vn -0.1216 -0.9077 -0.4016
vn -0.1387 -0.8876 -0.4392
vn -0.1180 -0.8719 -0.4752
vn -0.0787 -0.8702 -0.4863
vn -0.0448 -0.8801 -0.4726
vn -0.0307 -0.8963 -0.4423
vn -0.0439 -0.8800 -0.4730
vn -0.0313 -0.8965 -0.4420
vn -0.0862 -0.8934 -0.4410
vn -0.0445 -0.9109 -0.4102
vn -0.0794 -0.9162 -0.3927
vn -0.1203 -0.9076 -0.4022
vn -0.1391 -0.8878 -0.4387
vn -0.1195 -0.8711 -0.4764
vn -0.0785 -0.8690 -0.4885
vt 0.989000 0.670100
vt 0.989200 0.680100
vt 0.977700 0.679800
vt 0.977700 0.670100
vt 0.786300 0.667500
vt 0.798500 0.667500
vt 0.798600 0.669700
vt 0.786800 0.669700
vt 0.798500 0.678500
vt 0.978000 0.667600
vt 0.989200 0.667800
vt 0.786600 0.790700
vt 0.786600 0.678300
vt 0.798400 0.790600
vt 0.973200 0.007200
vt 0.973600 0.320200
vt 0.796600 0.320600
vt 0.796900 0.007500
vt 0.978800 0.658400
vt 0.989100 0.658400
vt 0.980500 0.007400
vt 0.982700 0.319100
vt 0.788100 0.319400
vt 0.788800 0.007100
vt 0.798000 0.658700
vt 0.786500 0.658400
vt 0.776800 0.319300
vt 0.777400 0.007100
vt 0.799400 0.422400
vt 0.799100 0.408400
vt 0.976700 0.408700
vt 0.976500 0.422100
vt 0.992900 0.319100
vt 0.991900 0.007100
vt 0.356800 0.014000
vt 0.356500 0.025500
vt 0.354100 0.025400
vt 0.354400 0.014700
vt 0.695000 0.285900
vt 0.695900 0.295600
vt 0.355400 0.293000
vt 0.355400 0.285000
vt 0.696400 0.306000
vt 0.696200 0.425900
vt 0.355600 0.425700
vt 0.355400 0.308400
vt 0.977600 0.400600
vt 0.989200 0.400900
vt 0.989500 0.408300
vt 0.798400 0.401000
vt 0.786800 0.408600
vt 0.787000 0.401000
vt 0.786600 0.421700
vt 0.357800 0.004000
vt 0.696800 0.005500
vt 0.697000 0.013700
vt 0.696900 0.027900
vt 0.696300 0.146000
vt 0.356500 0.144900
vt 0.976800 0.791400
vt 0.989100 0.791600
vt 0.798800 0.643400
vt 0.798700 0.655800
vt 0.786100 0.655600
vt 0.799100 0.530900
vt 0.786200 0.530900
vt 0.976700 0.644100
vt 0.990200 0.656100
vt 0.976600 0.543500
vt 0.989500 0.543600
vt 0.989600 0.422500
vt 0.698400 0.305600
vt 0.698600 0.425900
vt 0.353400 0.144700
vt 0.696500 0.441200
vt 0.355300 0.439300
vt 0.989700 0.531000
vt 0.976600 0.530800
vt 0.698700 0.441100
vt 0.798400 0.804800
vt 0.786500 0.804900
vt 0.976700 0.805800
vt 0.989000 0.805900
vt 0.356400 0.160300
vt 0.353400 0.160000
vt 0.696100 0.159200
vt 0.799100 0.543300
vt 0.786100 0.543100
vt 0.355000 0.560900
vt 0.696500 0.561000
vt 0.699400 0.560900
vt 0.786500 0.916600
vt 0.798500 0.916600
vt 0.976000 0.918400
vt 0.989000 0.918400
vt 0.352700 0.280500
vt 0.355900 0.280600
vt 0.696100 0.280600
vt 0.225700 0.120500
vt 0.226200 0.168200
vt 0.140000 0.169600
vt 0.139700 0.121100
vt 0.223900 0.034600
vt 0.251400 0.034100
vt 0.252300 0.120200
vt 0.252600 0.168300
vt 0.252600 0.254400
vt 0.225300 0.254400
vt 0.338500 0.119700
vt 0.338800 0.168300
vt 0.088800 0.087900
vt 0.088900 0.001900
vt 0.137500 0.001900
vt 0.137000 0.088000
vt 0.223200 0.087500
vt 0.223300 0.117100
vt 0.137200 0.117400
vt 0.088800 0.117200
vt 0.002800 0.087900
vt 0.002700 0.117600
vt 0.088400 0.203300
vt 0.136800 0.203500
vt 0.698100 0.296400
vt 0.348400 0.419500
vt 0.348400 0.558900
vt 0.337700 0.559800
vt 0.338000 0.413100
vt 0.347200 0.561800
vt 0.337600 0.561200
vt 0.343800 0.564200
vt 0.337700 0.564500
vt 0.331500 0.564400
vt 0.331500 0.561200
vt 0.249600 0.561400
vt 0.249600 0.564100
vt 0.244000 0.564200
vt 0.244000 0.561200
vt 0.237300 0.564100
vt 0.243400 0.560200
vt 0.236100 0.413100
vt 0.236000 0.406900
vt 0.243200 0.413000
vt 0.332200 0.412700
vt 0.332200 0.407000
vt 0.338300 0.408200
vt 0.342600 0.410700
vt 0.344900 0.413100
vt 0.228200 0.413100
vt 0.021900 0.563700
vt 0.021900 0.559500
vt 0.022500 0.406600
vt 0.022300 0.412900
vt 0.016000 0.563800
vt 0.016100 0.559500
vt 0.009600 0.563800
vt 0.009600 0.559500
vt 0.006100 0.562300
vt 0.004100 0.559300
vt 0.003800 0.421600
vt 0.009900 0.416300
vt 0.016000 0.413000
vt 0.005300 0.416100
vt 0.009300 0.410700
vt 0.014400 0.407600
vt 0.176400 0.264200
vt 0.177000 0.400400
vt 0.169700 0.400700
vt 0.170200 0.264200
vt 0.345800 0.400000
vt 0.344700 0.264000
vt 0.352500 0.400100
vt 0.351400 0.263900
vt 0.768800 0.324400
vt 0.757300 0.324400
vt 0.757300 0.011900
vt 0.769600 0.012500
vt 0.000800 0.400100
vt 0.001600 0.263900
vt 0.989000 0.395000
vt 0.725400 0.395000
vt 0.725900 0.372300
vt 0.988500 0.372200
vt 0.995300 0.372100
vt 0.995200 0.394800
vt 0.993100 0.922700
vt 0.992600 0.957100
vt 0.981400 0.957000
vt 0.981300 0.922900
vt 0.963000 0.957300
vt 0.962900 0.923000
vt 0.946000 0.957400
vt 0.946200 0.922900
vt 0.323600 0.957400
vt 0.323100 0.922700
vt 0.304300 0.957400
vt 0.304900 0.923000
vt 0.288100 0.957400
vt 0.051300 0.957400
vt 0.051200 0.922900
vt 0.033500 0.957200
vt 0.033800 0.923200
vt 0.016000 0.957000
vt 0.015900 0.923200
vt 0.003800 0.957300
vt 0.004400 0.923000
vt 0.995400 0.333200
vt 0.994400 0.355900
vt 0.988400 0.355700
vt 0.989100 0.333100
vt 0.721600 0.355100
vt 0.721700 0.333200
vt 0.707700 0.355500
vt 0.707400 0.333300
vt 0.701300 0.355400
vt 0.701000 0.333200
vt 0.004900 0.995800
vt 0.005100 0.961400
vt 0.019700 0.961600
vt 0.019100 0.995400
vt 0.038100 0.961600
vt 0.037700 0.995600
vt 0.322900 0.960800
vt 0.324100 0.997000
vt 0.955000 0.961000
vt 0.956100 0.995900
vt 0.979200 0.960900
vt 0.979700 0.996000
vt 0.996600 0.960800
vt 0.996100 0.995800
vt 0.701500 0.394600
vt 0.702100 0.372100
vt 0.714900 0.372300
vt 0.714700 0.394600
vt 0.758000 0.568400
vt 0.757900 0.598200
vt 0.740300 0.597300
vt 0.740200 0.565700
vt 0.769300 0.598700
vt 0.768800 0.574800
vt 0.778300 0.587200
vt 0.768400 0.911400
vt 0.780700 0.910300
vt 0.776500 0.916400
vt 0.753800 0.920500
vt 0.754200 0.911700
vt 0.768200 0.920200
vt 0.740900 0.920500
vt 0.740000 0.912300
vt 0.781500 0.599500
vt 0.030500 0.911500
vt 0.028400 0.593800
vt 0.043900 0.593500
vt 0.045400 0.911300
vt 0.009500 0.915700
vt 0.005900 0.909200
vt 0.016500 0.911700
vt 0.005900 0.594900
vt 0.018700 0.594300
vt 0.017100 0.920600
vt 0.031000 0.921400
vt 0.044600 0.921400
vt 0.013400 0.579700
vt 0.042000 0.566300
vt 0.028100 0.569000
vt 0.018800 0.574600
vt 0.259700 0.566300
vt 0.260600 0.593600
vt 0.256100 0.920900
vt 0.256300 0.907100
vt 0.241900 0.921000
vt 0.028700 0.003800
vt 0.061900 0.003800
vt 0.057100 0.018600
vt 0.035800 0.017700
vt 0.085300 0.027300
vt 0.071400 0.034300
vt 0.085300 0.060400
vt 0.070500 0.055500
vt 0.061900 0.083800
vt 0.055000 0.069900
vt 0.028700 0.083800
vt 0.033700 0.069100
vt 0.005300 0.060400
vt 0.019200 0.053500
vt 0.005300 0.027300
vt 0.020000 0.032100
vt 0.081900 0.143000
vt 0.082000 0.176100
vt 0.067200 0.171300
vt 0.068100 0.149900
vt 0.058500 0.199600
vt 0.051500 0.185700
vt 0.025400 0.199600
vt 0.030200 0.184800
vt 0.001900 0.176100
vt 0.015800 0.169100
vt 0.001900 0.143000
vt 0.016700 0.147900
vt 0.025400 0.119600
vt 0.032300 0.133500
vt 0.058500 0.119500
vt 0.053600 0.134300
vt 0.220500 0.059800
vt 0.197100 0.083300
vt 0.190200 0.069400
vt 0.205800 0.054900
vt 0.163900 0.083300
vt 0.168800 0.068600
vt 0.140500 0.059900
vt 0.154300 0.052800
vt 0.140500 0.026700
vt 0.155300 0.031500
vt 0.163900 0.003300
vt 0.171000 0.017200
vt 0.197100 0.003300
vt 0.192100 0.018100
vt 0.220500 0.026700
vt 0.206500 0.033600
vt 0.221100 0.229300
vt 0.197700 0.252700
vt 0.190800 0.238800
vt 0.206400 0.224300
vt 0.221200 0.196100
vt 0.207200 0.203100
vt 0.197800 0.172700
vt 0.192900 0.187500
vt 0.164600 0.172700
vt 0.171700 0.186600
vt 0.141100 0.196100
vt 0.156000 0.200900
vt 0.141100 0.229300
vt 0.155000 0.222300
vt 0.164600 0.252700
vt 0.169500 0.238000
vt 0.258400 0.091700
vt 0.258400 0.058600
vt 0.273100 0.063400
vt 0.272300 0.084800
vt 0.281800 0.115100
vt 0.286800 0.100400
vt 0.315000 0.115100
vt 0.308000 0.101200
vt 0.338400 0.091700
vt 0.323600 0.086800
vt 0.338400 0.058600
vt 0.324500 0.065600
vt 0.315000 0.035100
vt 0.310100 0.049900
vt 0.281800 0.035100
vt 0.288800 0.049000
vt 0.315200 0.171500
vt 0.338700 0.194900
vt 0.324800 0.202000
vt 0.310300 0.186300
vt 0.282000 0.171500
vt 0.289000 0.185400
vt 0.258600 0.195000
vt 0.273400 0.199900
vt 0.258600 0.228100
vt 0.272600 0.221200
vt 0.282100 0.251500
vt 0.287000 0.236800
vt 0.315200 0.251600
vt 0.308200 0.237600
vt 0.338700 0.228100
vt 0.323900 0.223300
vt 0.298900 0.209700
vt 0.043200 0.043300
vt 0.296900 0.074700
vt 0.043100 0.159900
vt 0.179100 0.214900
vt 0.179200 0.046100
s 1
usemtl Table
f 1/1/1 2/2/2 3/3/3
f 3/3/3 4/4/4 1/1/1
f 5/5/5 6/6/6 7/7/5
f 7/7/5 8/8/5 5/5/5
f 4/4/4 3/3/3 9/9/7
f 9/9/7 7/7/8 4/4/4
f 1/1/5 4/4/5 10/10/6
f 10/10/6 11/11/9 1/1/5
f 4/4/5 7/7/5 6/6/6
f 6/6/6 10/10/6 4/4/5
f 12/12/10 13/13/11 9/9/7
f 9/9/7 14/14/12 12/12/10
f 15/15/13 10/16/6 6/17/6
f 6/17/6 16/18/13 15/15/13
f 17/19/14 18/20/15 11/11/16
f 11/11/16 10/10/17 17/19/14
f 15/15/18 19/21/18 17/22/18
f 17/22/18 10/16/18 15/15/18
f 20/23/19 21/24/19 16/18/19
f 16/18/19 6/17/19 20/23/19
f 20/25/20 6/6/21 5/5/22
f 5/5/22 22/26/23 20/25/20
f 21/24/24 20/23/13 22/27/25
f 22/27/25 23/28/24 21/24/24
f 24/29/26 15/30/27 16/31/28
f 16/31/28 25/32/29 24/29/26
f 18/33/5 17/22/5 19/21/30
f 19/21/30 26/34/31 18/33/5
f 11/35/32 27/36/33 2/37/34
f 2/37/34 1/38/35 11/35/32
f 22/39/36 5/40/36 28/41/36
f 28/41/36 23/42/36 22/39/36
f 29/43/36 30/44/37 31/45/38
f 31/45/38 32/46/36 29/43/36
f 21/47/39 23/48/40 28/49/41
f 28/49/41 16/31/28 21/47/39
f 19/50/42 15/30/27 33/51/43
f 33/51/43 26/52/44 19/50/42
f 34/53/45 33/51/43 15/30/27
f 15/30/27 24/29/26 34/53/45
f 18/54/46 26/55/46 33/56/46
f 33/56/46 11/35/32 18/54/46
f 33/56/46 34/57/47 27/36/33
f 27/36/33 11/35/32 33/56/46
f 34/57/47 35/58/48 36/59/49
f 36/59/49 27/36/33 34/57/47
f 37/60/50 3/3/3 2/2/2
f 2/2/2 38/61/51 37/60/50
f 39/62/52 40/63/53 41/64/54
f 24/29/26 42/65/55 35/66/56
f 35/66/56 34/53/45 24/29/26
f 43/67/57 44/68/58 40/63/53
f 40/63/53 39/62/52 43/67/57
f 43/67/57 45/69/59 46/70/60
f 46/70/60 44/68/58 43/67/57
f 28/49/41 32/71/61 25/32/29
f 25/32/29 16/31/28 28/49/41
f 30/44/37 29/43/36 13/72/38
f 13/72/38 12/73/62 30/44/37
f 5/40/36 29/43/36 32/46/36
f 32/46/36 28/41/36 5/40/36
f 38/74/63 2/37/34 27/36/33
f 27/36/33 36/59/49 38/74/63
f 30/44/37 47/75/64 46/76/65
f 46/76/65 31/45/38 30/44/37
f 32/71/61 31/77/66 48/78/67
f 48/78/67 25/32/29 32/71/61
f 12/73/62 49/79/68 47/75/64
f 47/75/64 30/44/37 12/73/62
f 14/14/12 50/80/69 49/81/70
f 49/81/70 12/12/10 14/14/12
f 37/60/50 51/82/71 50/80/69
f 50/80/69 14/14/12 37/60/50
f 38/61/51 52/83/72 51/82/71
f 51/82/71 37/60/50 38/61/51
f 36/59/49 53/84/73 52/85/74
f 52/85/74 38/74/63 36/59/49
f 35/58/48 54/86/75 53/84/73
f 53/84/73 36/59/49 35/58/48
f 42/65/55 55/87/76 54/88/77
f 54/88/77 35/66/56 42/65/55
f 31/77/66 46/70/60 45/69/59
f 45/69/59 48/78/67 31/77/66
f 44/89/78 46/76/65 47/75/64
f 47/75/64 56/90/79 44/89/78
f 56/90/79 47/75/64 49/79/68
f 49/79/68 57/91/80 56/90/79
f 57/92/81 49/81/70 50/80/69
f 50/80/69 58/93/82 57/92/81
f 58/93/82 50/80/69 51/82/71
f 51/82/71 59/94/83 58/93/82
f 59/94/83 51/82/71 52/83/72
f 52/83/72 60/95/84 59/94/83
f 60/96/85 52/85/74 53/84/73
f 53/84/73 61/97/86 60/96/85
f 61/97/86 53/84/73 54/86/75
f 54/86/75 41/98/87 61/97/86
f 41/64/54 54/88/77 55/87/76
f 55/87/76 39/62/52 41/64/54
f 45/69/59 55/87/76 42/65/55
f 42/65/55 48/78/67 45/69/59
f 62/99/88 63/100/88 55/101/88
f 55/101/88 45/102/88 62/99/88
f 62/99/89 45/103/89 43/104/89
f 43/104/89 64/105/90 62/99/89
f 64/105/91 65/106/92 63/100/93
f 63/100/93 62/99/94 64/105/91
f 63/100/95 65/106/96 39/107/97
f 39/107/97 55/108/98 63/100/95
f 64/105/99 43/109/100 39/110/100
f 39/110/100 65/106/101 64/105/99
f 66/111/5 48/112/5 42/113/5
f 42/113/5 67/114/5 66/111/5
f 67/114/36 42/115/102 24/116/102
f 24/116/102 68/117/103 67/114/36
f 66/111/104 67/114/105 68/117/106
f 68/117/106 69/118/107 66/111/104
f 48/119/108 66/111/109 69/118/110
f 69/118/110 25/120/111 48/119/108
f 25/121/88 69/118/88 68/117/88
f 68/117/88 24/122/88 25/121/88
f 14/14/12 9/9/7 3/3/3
f 3/3/3 37/60/50 14/14/12
f 8/123/36 13/72/38 29/43/36
f 29/43/36 5/40/36 8/123/36
f 7/7/8 9/9/7 13/13/11
f 13/13/11 8/8/112 7/7/8
f 70/124/113 71/125/5 61/126/114
f 61/126/114 41/127/115 70/124/113
f 71/125/5 72/128/5 60/129/5
f 60/129/5 61/126/114 71/125/5
f 60/129/5 72/128/5 73/130/5
f 74/131/116 75/132/101 59/133/101
f 59/133/101 60/129/5 74/131/116
f 58/134/117 59/133/101 75/132/101
f 75/132/101 76/135/117 58/134/117
f 76/135/117 77/136/5 57/137/118
f 57/137/118 58/134/117 76/135/117
f 77/136/5 78/138/5 56/139/5
f 56/139/5 57/137/118 77/136/5
f 79/140/5 80/141/5 44/142/5
f 40/143/119 44/142/5 80/141/5
f 80/141/5 81/144/120 40/143/119
f 81/144/120 82/145/121 41/127/115
f 41/127/115 40/143/119 81/144/120
f 41/127/115 82/145/121 83/146/122
f 70/124/113 41/127/115 84/147/123
f 84/147/123 41/127/115 83/146/122
f 73/130/5 74/131/116 60/129/5
f 85/148/5 80/141/5 79/140/5
f 78/138/5 79/140/5 44/142/5
f 44/142/5 56/139/5 78/138/5
f 79/140/5 78/138/5 86/149/5
f 79/140/5 86/149/5 87/150/5
f 79/140/5 87/150/5 85/148/5
f 88/151/119 80/141/5 85/148/5
f 85/148/5 89/152/124 88/151/119
f 89/152/124 85/148/5 87/150/5
f 90/153/125 91/154/125 87/150/5
f 87/150/5 86/149/5 90/153/125
f 92/155/126 93/156/127 91/154/125
f 91/154/125 90/153/125 92/155/126
f 92/155/126 94/157/25 93/156/127
f 94/157/25 95/158/128 93/156/127
f 96/159/129 97/160/130 93/156/127
f 93/156/127 95/158/128 96/159/129
f 97/160/130 98/161/131 91/154/125
f 91/154/125 93/156/127 97/160/130
f 96/159/129 99/162/132 97/160/130
f 99/162/132 100/163/130 97/160/130
f 98/161/131 97/160/130 100/163/130
f 100/163/130 101/164/133 98/161/131
f 101/164/133 88/151/119 89/152/124
f 89/152/124 98/161/131 101/164/133
f 102/165/134 98/166/135 89/167/136
f 89/167/136 103/168/137 102/165/134
f 91/169/36 98/166/36 102/165/36
f 102/165/36 104/170/36 91/169/36
f 87/171/138 91/169/139 104/170/140
f 104/170/140 105/172/141 87/171/138
f 102/173/142 103/174/142 105/175/143
f 105/175/143 104/176/143 102/173/142
f 103/168/46 89/167/46 87/177/46
f 87/177/46 105/178/46 103/168/46
f 106/179/144 107/180/145 96/181/146
f 96/181/146 95/182/147 106/179/144
f 106/179/144 95/182/147 94/183/148
f 94/183/148 108/184/149 106/179/144
f 108/185/149 94/186/148 92/187/150
f 92/187/150 109/188/151 108/185/149
f 109/188/151 92/187/150 90/189/152
f 90/189/152 110/190/153 109/188/151
f 110/190/153 90/189/152 86/191/154
f 86/191/154 111/192/155 110/190/153
f 78/193/156 112/194/157 111/192/155
f 111/192/155 86/191/154 78/193/156
f 112/194/157 78/193/156 77/195/158
f 77/195/158 113/196/159 112/194/157
f 76/197/160 113/196/159 77/195/158
f 75/198/161 114/199/162 113/196/159
f 113/196/159 76/197/160 75/198/161
f 114/199/162 75/198/161 74/200/163
f 74/200/163 115/201/164 114/199/162
f 115/201/164 74/200/163 73/202/165
f 73/202/165 116/203/166 115/201/164
f 116/203/166 73/202/165 72/204/167
f 72/204/167 117/205/168 116/203/166
f 117/206/168 72/207/167 71/208/169
f 71/208/169 118/209/170 117/206/168
f 70/210/171 119/211/172 118/209/170
f 118/209/170 71/208/169 70/210/171
f 119/211/172 70/210/171 84/212/173
f 84/212/173 120/213/174 119/211/172
f 120/213/174 84/212/173 83/214/175
f 83/214/175 121/215/176 120/213/174
f 121/216/176 83/217/175 82/218/177
f 82/218/177 122/219/178 121/216/176
f 122/219/178 82/218/177 81/220/179
f 81/220/179 123/221/180 122/219/178
f 123/221/180 81/220/179 80/222/181
f 80/222/181 124/223/182 123/221/180
f 88/224/183 125/225/184 124/223/182
f 124/223/182 80/222/181 88/224/183
f 125/225/184 88/224/183 101/226/185
f 101/226/185 126/227/186 125/225/184
f 126/227/186 101/226/185 100/228/187
f 100/228/187 127/229/188 126/227/186
f 127/230/188 100/231/187 99/232/189
f 99/232/189 128/233/190 127/230/188
f 96/181/146 107/180/145 128/233/190
f 128/233/190 99/232/189 96/181/146
f 126/234/88 129/235/191 130/236/88
f 130/236/88 125/237/88 126/234/88
f 131/238/191 127/239/88 128/240/88
f 127/239/88 131/238/191 129/235/191
f 129/235/191 126/234/88 127/239/88
f 132/241/88 106/242/88 108/243/88
f 110/244/88 133/245/88 132/241/88
f 132/241/88 109/246/191 110/244/88
f 111/247/88 134/248/88 133/245/88
f 133/245/88 110/244/88 111/247/88
f 108/243/88 109/246/191 132/241/88
f 132/241/88 131/238/191 107/249/88
f 107/249/88 106/242/88 132/241/88
f 133/245/88 129/235/191 131/238/191
f 131/238/191 132/241/88 133/245/88
f 134/248/88 130/236/88 129/235/191
f 129/235/191 133/245/88 134/248/88
f 128/240/88 107/249/88 131/238/191
f 135/250/88 136/251/88 137/252/88
f 137/252/88 138/253/88 135/250/88
f 117/254/192 118/255/193 139/256/88
f 118/255/193 119/257/88 140/258/191
f 140/258/191 139/256/88 118/255/193
f 139/256/88 116/259/194 117/254/192
f 115/260/194 135/250/88 138/253/88
f 138/253/88 114/261/194 115/260/194
f 116/259/194 139/256/88 135/250/88
f 135/250/88 115/260/194 116/259/194
f 140/258/191 119/257/88 120/262/88
f 123/263/88 137/252/88 136/251/88
f 136/251/88 122/264/191 123/263/88
f 120/262/88 121/265/88 140/258/191
f 122/264/191 136/251/88 140/258/191
f 140/258/191 121/265/88 122/264/191
f 140/258/191 136/251/88 135/250/88
f 135/250/88 139/256/88 140/258/191
f 137/252/88 123/263/88 124/266/88
f 124/266/88 141/267/88 137/252/88
f 125/237/88 130/236/88 141/267/88
f 141/267/88 124/266/88 125/237/88
f 134/248/88 111/247/88 112/268/88
f 112/268/88 142/269/88 134/248/88
f 142/269/88 112/268/88 113/270/88
f 138/253/88 142/269/88 113/270/88
f 113/270/88 114/261/194 138/253/88
f 138/253/88 137/252/88 141/267/88
f 141/267/88 142/269/88 138/253/88
f 142/269/88 141/267/88 130/236/88
f 130/236/88 134/248/88 142/269/88
f 143/271/195 144/272/196 145/273/196
f 145/273/196 146/274/197 143/271/195
f 144/272/198 147/275/198 148/276/198
f 148/276/198 145/273/199 144/272/198
f 147/275/200 149/277/201 150/278/202
f 150/278/202 148/276/203 147/275/200
f 149/277/201 151/279/204 152/280/204
f 152/280/204 150/278/202 149/277/201
f 151/279/205 153/281/206 154/282/207
f 154/282/207 152/280/205 151/279/205
f 153/281/206 155/283/208 156/284/209
f 156/284/209 154/282/207 153/281/206
f 155/283/208 157/285/210 158/286/211
f 158/286/211 156/284/209 155/283/208
f 157/285/212 143/271/195 146/274/197
f 146/274/197 158/286/213 157/285/212
f 159/287/46 160/288/196 161/289/196
f 161/289/196 162/290/46 159/287/46
f 160/288/199 163/291/214 164/292/215
f 164/292/215 161/289/199 160/288/199
f 163/291/214 165/293/203 166/294/203
f 166/294/203 164/292/215 163/291/214
f 165/293/216 167/295/36 168/296/36
f 168/296/36 166/294/216 165/293/216
f 167/295/36 169/297/205 170/298/205
f 170/298/205 168/296/36 167/295/36
f 169/297/217 171/299/208 172/300/209
f 172/300/209 170/298/217 169/297/217
f 171/299/208 173/301/218 174/302/218
f 174/302/218 172/300/209 171/299/208
f 173/301/218 159/287/46 162/290/46
f 162/290/46 174/302/218 173/301/218
f 175/303/219 176/304/196 177/305/196
f 177/305/196 178/306/195 175/303/219
f 176/304/198 179/307/214 180/308/215
f 180/308/215 177/305/220 176/304/198
f 179/307/214 181/309/200 182/310/200
f 182/310/200 180/308/215 179/307/214
f 181/309/216 183/311/221 184/312/221
f 184/312/221 182/310/216 181/309/216
f 183/311/221 185/313/222 186/314/223
f 186/314/223 184/312/221 183/311/221
f 185/313/222 187/315/208 188/316/209
f 188/316/209 186/314/223 185/313/222
f 187/315/208 189/317/211 190/318/211
f 190/318/211 188/316/209 187/315/208
f 189/317/224 175/303/219 178/306/195
f 178/306/195 190/318/212 189/317/224
f 191/319/224 192/320/197 193/321/219
f 193/321/219 194/322/212 191/319/224
f 195/323/208 191/319/211 194/322/225
f 194/322/225 196/324/209 195/323/208
f 197/325/226 195/323/208 196/324/209
f 196/324/209 198/326/223 197/325/226
f 199/327/221 197/325/226 198/326/223
f 198/326/223 200/328/221 199/327/221
f 201/329/216 199/327/221 200/328/221
f 200/328/221 202/330/227 201/329/216
f 203/331/214 201/329/200 202/330/200
f 202/330/200 204/332/215 203/331/214
f 205/333/198 203/331/214 204/332/215
f 204/332/215 206/334/220 205/333/198
f 192/320/197 205/333/196 206/334/196
f 206/334/196 193/321/219 192/320/197
f 207/335/212 208/336/195 209/337/195
f 209/337/195 210/338/212 207/335/212
f 211/339/208 207/335/211 210/338/225
f 210/338/225 212/340/209 211/339/208
f 213/341/217 211/339/208 212/340/209
f 212/340/209 214/342/228 213/341/217
f 215/343/205 213/341/205 214/342/205
f 214/342/205 216/344/205 215/343/205
f 217/345/204 215/343/229 216/344/204
f 216/344/204 218/346/230 217/345/204
f 219/347/214 217/345/203 218/346/231
f 218/346/231 220/348/215 219/347/214
f 221/349/232 219/347/214 220/348/215
f 220/348/215 222/350/232 221/349/232
f 208/336/195 221/349/232 222/350/232
f 222/350/232 209/337/195 208/336/195
f 223/351/212 224/352/197 225/353/197
f 225/353/197 226/354/212 223/351/212
f 227/355/233 223/351/234 226/354/211
f 226/354/211 228/356/233 227/355/233
f 229/357/217 227/355/233 228/356/233
f 228/356/233 230/358/235 229/357/217
f 231/359/236 229/357/236 230/358/236
f 230/358/236 232/360/236 231/359/236
f 233/361/237 231/359/216 232/360/216
f 232/360/216 234/362/237 233/361/237
f 235/363/238 233/361/237 234/362/237
f 234/362/237 236/364/239 235/363/238
f 237/365/232 235/363/238 236/364/239
f 236/364/239 238/366/240 237/365/232
f 224/352/197 237/365/232 238/366/240
f 238/366/240 225/353/197 224/352/197
f 238/366/241 236/364/242 239/367/243
f 236/364/242 234/362/244 239/367/243
f 234/362/244 232/360/245 239/367/243
f 232/360/245 230/358/246 239/367/243
f 230/358/246 228/356/247 239/367/243
f 228/356/247 226/354/248 239/367/243
f 226/354/248 225/353/249 239/367/243
f 225/353/249 238/366/241 239/367/243
f 158/286/250 146/274/251 240/368/252
f 146/274/251 145/273/253 240/368/252
f 145/273/253 148/276/254 240/368/252
f 148/276/254 150/278/255 240/368/252
f 150/278/255 152/280/256 240/368/252
f 152/280/256 154/282/257 240/368/252
f 154/282/257 156/284/258 240/368/252
f 156/284/258 158/286/250 240/368/252
f 210/338/259 209/337/260 241/369/261
f 209/337/260 222/350/262 241/369/261
f 222/350/262 220/348/263 241/369/261
f 220/348/263 218/346/264 241/369/261
f 218/346/264 216/344/265 241/369/261
f 216/344/265 214/342/266 241/369/261
f 214/342/266 212/340/267 241/369/261
f 212/340/267 210/338/259 241/369/261
f 162/290/268 161/289/269 242/370/270
f 161/289/269 164/292/271 242/370/270
f 164/292/271 166/294/272 242/370/270
f 166/294/272 168/296/273 242/370/270
f 168/296/273 170/298/274 242/370/270
f 170/298/274 172/300/275 242/370/270
f 172/300/275 174/302/276 242/370/270
f 174/302/276 162/290/268 242/370/270
f 194/322/277 193/321/278 243/371/279
f 193/321/278 206/334/280 243/371/279
f 206/334/280 204/332/281 243/371/279
f 204/332/281 202/330/282 243/371/279
f 202/330/282 200/328/283 243/371/279
f 200/328/283 198/326/284 243/371/279
f 198/326/284 196/324/285 243/371/279
f 196/324/285 194/322/277 243/371/279
f 186/314/286 188/316/287 244/372/288
f 188/316/287 190/318/289 244/372/288
f 190/318/289 178/306/290 244/372/288
f 178/306/290 177/305/291 244/372/288
f 177/305/291 180/308/292 244/372/288
f 180/308/292 182/310/293 244/372/288
f 182/310/293 184/312/294 244/372/288
f 184/312/294 186/314/286 244/372/288
